<?xml version="1.0" encoding="UTF-8" standalone="no"?>
<svg width="640" height="480" xmlns="http://www.w3.org/2000/svg">
 <!-- Created with SVG-edit - http://svg-edit.googlecode.com/ -->

 <g>
  <title>Layer 1</title>
  <path id="svg_17" fill="#ffffff" stroke="#000000" stroke-width="5" stroke-dasharray="null" stroke-linejoin="null" stroke-linecap="null" d="m525.46997,37.50037c-21.92651,0 -40.74564,10.47586 -49.95734,25.59879c-3.68024,-1.89252 -7.73679,-3.04031 -12.0687,-3.04031c-13.0986,0 -23.99554,9.70847 -27.36523,22.88336c-5.74835,-2.09152 -12.43484,-3.36145 -19.57559,-3.36145c-21.42407,0 -38.80173,10.79733 -38.80173,24.11142c0,12.01514 14.25275,21.89606 32.76782,23.72195c-0.83057,1.29813 -1.4758,2.58344 -1.4758,3.94299c0,12.74789 37.90622,23.14294 84.62274,23.14294c46.71277,0 84.6153,-10.39505 84.6153,-23.14294c0,-0.85489 -0.57568,-1.62347 -0.91028,-2.45529c2.04401,0.46884 4.0705,0.97015 6.31659,0.97015c12.49512,0 22.66254,-7.82449 22.66254,-17.45264c0,-9.63074 -10.16742,-17.4552 -22.66254,-17.4552c-1.53424,0 -2.83569,0.48849 -4.27997,0.71307c1.26257,-3.84988 2.10333,-7.78003 2.10333,-11.95706c0,-25.49316 -25.04492,-46.21979 -55.99115,-46.21979l0,0l0,0z"/>
  <path id="svg_16" fill="#ffffff" stroke="#000000" stroke-width="5" stroke-dasharray="null" stroke-linejoin="null" stroke-linecap="null" d="m525.46997,177.50037c-21.92651,0 -40.74564,10.47586 -49.95734,25.59879c-3.68024,-1.89252 -7.73679,-3.04031 -12.0687,-3.04031c-13.0986,0 -23.99554,9.70847 -27.36523,22.88336c-5.74835,-2.09152 -12.43484,-3.36145 -19.57559,-3.36145c-21.42407,0 -38.80173,10.79733 -38.80173,24.11142c0,12.01514 14.25275,21.89606 32.76782,23.72195c-0.83057,1.29813 -1.4758,2.58344 -1.4758,3.94299c0,12.74789 37.90622,23.14294 84.62274,23.14294c46.71277,0 84.6153,-10.39505 84.6153,-23.14294c0,-0.85489 -0.57568,-1.62347 -0.91028,-2.45529c2.04401,0.46884 4.0705,0.97015 6.31659,0.97015c12.49512,0 22.66254,-7.82449 22.66254,-17.45264c0,-9.63074 -10.16742,-17.4552 -22.66254,-17.4552c-1.53424,0 -2.83569,0.48849 -4.27997,0.71307c1.26257,-3.84988 2.10333,-7.78003 2.10333,-11.95706c0,-25.49316 -25.04492,-46.21979 -55.99115,-46.21979l0,0l0,0z"/>
  <path id="svg_15" fill="#ffffff" stroke="#000000" stroke-width="5" stroke-dasharray="null" stroke-linejoin="null" stroke-linecap="null" d="m525.46802,316.50037c-21.92651,0 -40.74564,10.47586 -49.95734,25.59879c-3.68024,-1.89252 -7.73679,-3.04031 -12.0687,-3.04031c-13.0986,0 -23.99554,9.70847 -27.36523,22.88336c-5.74835,-2.09152 -12.43484,-3.36145 -19.57559,-3.36145c-21.42407,0 -38.80173,10.79733 -38.80173,24.11142c0,12.01514 14.25275,21.89606 32.76782,23.72195c-0.83057,1.29813 -1.4758,2.58344 -1.4758,3.94299c0,12.74789 37.90622,23.14294 84.62274,23.14294c46.71277,0 84.6153,-10.39505 84.6153,-23.14294c0,-0.85489 -0.57568,-1.62347 -0.91028,-2.45529c2.04401,0.46884 4.0705,0.97015 6.31659,0.97015c12.49512,0 22.66254,-7.82449 22.66254,-17.45264c0,-9.63074 -10.16742,-17.4552 -22.66254,-17.4552c-1.53424,0 -2.83569,0.48849 -4.27997,0.71307c1.26257,-3.84988 2.10333,-7.78003 2.10333,-11.95706c0,-25.49316 -25.04492,-46.21979 -55.99115,-46.21979l0,0l0,0z"/>
  <text fill="#000000" stroke="#000000" stroke-width="0" stroke-dasharray="null" stroke-linejoin="null" stroke-linecap="null" x="499.51563" y="231" id="svg_5" font-size="24" font-family="Sans-serif" text-anchor="middle" xml:space="preserve">svg-edit</text>
  <text fill="#000000" stroke="#000000" stroke-width="0" stroke-dasharray="null" stroke-linejoin="null" stroke-linecap="null" x="499.25" y="272" font-size="13" font-family="Sans-serif" text-anchor="middle" xml:space="preserve" id="svg_7">served by Google</text>
  <path id="svg_1" stroke-linecap="null" stroke-linejoin="null" stroke-dasharray="null" stroke-width="5" stroke="#000000" fill="#ffffff"/>
  <text fill="#000000" stroke="#000000" stroke-width="0" stroke-dasharray="null" stroke-linejoin="null" stroke-linecap="null" x="500" y="252.5" font-size="16" font-family="Sans-serif" text-anchor="middle" xml:space="preserve" id="svg_3">view and update models</text>
  <text id="svg_9" fill="#000000" stroke="#000000" stroke-width="0" stroke-dasharray="null" stroke-linejoin="null" stroke-linecap="null" x="497.75781" y="89.5" font-size="24" font-family="Sans-serif" text-anchor="middle" xml:space="preserve">models</text>
  <text style="cursor: move;" id="svg_10" fill="#000000" stroke="#000000" stroke-width="0" stroke-dasharray="null" stroke-linejoin="null" stroke-linecap="null" x="497.24609" y="131.5" font-size="13" font-family="Sans-serif" text-anchor="middle" xml:space="preserve">served by Github</text>
  <text id="svg_11" fill="#000000" stroke="#000000" stroke-width="0" stroke-dasharray="null" stroke-linejoin="null" stroke-linecap="null" x="498.02734" y="112" font-size="16" font-family="Sans-serif" text-anchor="middle" xml:space="preserve">versioned storage</text>
  <text style="cursor: move;" id="svg_12" fill="#000000" stroke="#000000" stroke-width="0" stroke-dasharray="null" stroke-linejoin="null" stroke-linecap="null" x="498.43359" y="371.5" font-size="24" font-family="Sans-serif" text-anchor="middle" xml:space="preserve">bonserv</text>
  <text style="cursor: move;" id="svg_13" fill="#000000" stroke="#000000" stroke-width="0" stroke-dasharray="null" stroke-linejoin="null" stroke-linecap="null" x="498.44531" y="413.5" font-size="13" font-family="Sans-serif" text-anchor="middle" xml:space="preserve">served by Heroku</text>
  <text id="svg_14" fill="#000000" stroke="#000000" stroke-width="0" stroke-dasharray="null" stroke-linejoin="null" stroke-linecap="null" x="499.04688" y="394" font-size="16" font-family="Sans-serif" text-anchor="middle" xml:space="preserve">scala web application</text>
  <text xml:space="preserve" text-anchor="middle" font-family="Sans-serif" font-size="24" id="svg_18" y="121" x="143" stroke-linecap="null" stroke-linejoin="null" stroke-dasharray="null" stroke-width="0" stroke="#0000bf" fill="#0000bf">bonsai web application</text>
  <text id="svg_19" fill="#0000bf" stroke="#0000bf" stroke-width="0" stroke-dasharray="null" stroke-linejoin="null" stroke-linecap="null" x="122.20703" y="155.5" font-size="16" font-family="Sans-serif" text-anchor="middle" xml:space="preserve">Cloud-based, HTML5</text>
  <ellipse ry="4" rx="4" id="svg_20" cy="150" cx="30" stroke-linecap="null" stroke-linejoin="null" stroke-dasharray="null" stroke-width="5" stroke="#0000bf" fill="#0000bf"/>
 </g>
</svg>